<svg xmlns="http://www.w3.org/2000/svg" viewBox="0 0 3000 2000" width="3000" height="2000"><g transform="translate(25.0 386.6666666666667) rotate(0.0 1166.6666666666667 666.6666666666666) scale(2.637378204932576 2.644846681543929)"><svg width="884.717" height="504.125" viewBox="0 0 884.717 504.125"><g><path d="m789.544 419.349-679.352 84.218c-39.592 4.91-75.668-23.209-80.576-62.8L.556 206.355c-4.908-39.592 23.21-75.668 62.802-80.578L742.709 41.56c39.592-4.909 75.668 23.21 80.577 62.801l29.059 234.41c4.908 39.595-23.207 75.67-62.801 80.578z" fill="#DEA2FF"/><g><path d="m835.956 382.678-722.57 89.577c-27.658 3.428-52.858-16.212-56.287-43.872L22.682 150.754c-3.428-27.658 16.214-52.86 43.872-56.288L789.124 4.89c27.658-3.428 52.859 16.213 56.287 43.873l34.417 277.628c3.429 27.658-16.212 52.858-43.872 56.288z" fill="#FFF"/><path d="M107.138 477.143c-27.317 0-51.06-20.412-54.506-48.206L18.214 151.308c-1.805-14.57 2.17-28.97 11.195-40.55S51.43 91.804 66 90L788.568.423c30.077-3.726 57.58 17.708 61.308 47.785l34.417 277.628c3.729 30.077-17.707 57.58-47.784 61.308l-.554-4.466.554 4.466-722.57 89.577a55.246 55.246 0 0 1-6.802.422zM795.364 9.002a46.4 46.4 0 0 0-5.688.351L67.106 98.93c-12.185 1.51-23.05 7.675-30.6 17.359-7.546 9.683-10.87 21.726-9.36 33.909l34.417 277.629c3.117 25.15 26.112 43.077 51.268 39.96L835.4 378.21c25.151-3.117 43.077-26.118 39.958-51.268L840.94 49.314c-2.877-23.242-22.734-40.312-45.577-40.312z" fill="#1E284C"/></g></g></svg></g><g transform="translate(241.66666666666669 556.6666666666667) rotate(0.0 897.5 456.66666666666663) scale(0.8125105807436349 0.8137187033837927)"><svg width="2209.202" height="1122.419" viewBox="0 0 2209.202 1122.419"><g fill="#1E284C"><path d="M1075.478 1059.216c-39.617 0-76.604-7.33-110.395-21.918-42.553-18.372-79.423-47.934-109.586-87.864-26.584-35.193-47.542-77.915-62.29-126.977-13.791-45.879-21.855-96.195-23.969-149.552-4.178-105.467 15.333-215.104 54.939-308.714 29.165-68.932 67.396-125.731 113.633-168.821 52.021-48.481 111.713-77.192 177.417-85.338 90.339-11.2 169.309 21.034 228.363 93.218 25.667 31.373 47.068 69.797 63.61 114.204 15.525 41.677 26.498 87.816 32.612 137.135 7.793 62.86 7.327 130.109-1.346 194.477-9.077 67.363-26.441 129.748-51.61 185.424-27.435 60.688-62.907 110.384-105.431 147.705-47.599 41.776-102.611 66.786-163.507 74.335-14.447 1.792-28.607 2.686-42.44 2.686zm44.056-914.45 4.306 34.734c-50.765 6.293-97.297 28.862-138.306 67.079-38.438 35.822-71.942 85.923-96.89 144.887-35.674 84.318-53.24 183.284-49.461 278.667 3.816 96.344 29.447 180.551 72.169 237.108 47.831 63.319 114.431 90.174 197.953 79.821 46.714-5.791 89.087-25.129 125.945-57.478 34.975-30.696 64.521-72.392 87.82-123.929 22.054-48.785 37.968-106.165 46.022-165.937 7.882-58.497 8.315-119.536 1.251-176.517-18.549-149.624-93.043-302.725-246.504-283.701zM561.392 1122.42c-.604 0-1.21-.015-1.821-.047-19.305-.989-34.152-17.44-33.163-36.745l44.319-864.999c.989-19.305 17.446-34.15 36.745-33.163 19.305.989 34.152 17.44 33.163 36.745l-44.319 864.999c-.958 18.694-16.417 33.21-34.924 33.21z"/><path d="M34.983 892.174c-13.948 0-26.754-8.343-32.257-21.459-6.068-14.462-1.775-31.195 10.506-40.949 168.992-134.22 313.164-297.48 404.352-410.803 98.859-122.856 158.074-214.564 158.661-215.476 10.457-16.258 32.113-20.959 48.37-10.503 16.257 10.457 20.96 32.113 10.503 48.37-2.477 3.851-61.831 95.767-162.998 221.493-59.378 73.792-120.828 143.822-182.64 208.144-47.123 49.036-94.549 94.831-141.799 136.945l528.71-65.544c19.186-2.377 36.663 11.245 39.04 30.428 2.378 19.183-11.245 36.662-30.428 39.04L39.306 891.906c-1.448.18-2.893.268-4.323.268zM2054.896 935c-.604 0-1.21-.015-1.821-.047-19.305-.989-34.152-17.44-33.163-36.745l44.319-864.999c.99-19.305 17.457-34.151 36.745-33.163 19.305.989 34.152 17.44 33.163 36.745L2089.82 901.79c-.957 18.694-16.416 33.21-34.924 33.21z"/><path d="M1528.488 704.754c-13.87 0-26.62-8.252-32.173-21.26-6.126-14.351-2.012-31.023 10.085-40.877 170.452-138.847 314.459-301.679 405.251-413.829 98.688-121.903 157.625-211.996 158.209-212.892 10.553-16.193 32.235-20.768 48.429-10.218s20.773 32.228 10.225 48.424c-2.446 3.755-61.057 93.405-161.825 217.95-59.129 73.081-120.495 142.925-182.393 207.59-48.087 50.238-96.599 97.438-145.006 141.109l530.605-65.779c19.184-2.377 36.662 11.245 39.04 30.428s-11.245 36.662-30.428 39.04l-645.697 80.047a35.211 35.211 0 0 1-4.322.267z"/></g></svg></g><g transform="translate(2120.0 306.6666666666667) rotate(0.0 307.5 303.33333333333337) scale(2.602645811644618 2.601843592030925)"><svg width="236.298" height="233.168" viewBox="0 0 236.298 233.168"><g><g><path fill="#95FF80" d="M206.546 187.705a5.609 5.609 0 0 0 .265-6.68c-6.128-8.959-7.369-20.298-3.32-30.326 4.049-10.029 12.805-17.315 23.425-19.492a5.59 5.59 0 0 0 4.446-4.987c1.434-16.239-.671-32.427-6.258-48.112a5.596 5.596 0 0 0-5.769-3.701c-10.97.973-21.552-3.609-28.304-12.258-7.06-9.043-8.778-20.855-4.594-31.596a5.602 5.602 0 0 0-1.944-6.578c-7.629-5.502-15.64-9.969-23.81-13.277-6.424-2.601-13.335-4.648-20.541-6.088a5.589 5.589 0 0 0-6.32 3.498c-4.182 11.012-14.01 18.866-25.648 20.494-12.118 1.698-23.99-3.53-30.982-13.641a5.595 5.595 0 0 0-6.958-1.895C55.195 20.049 42.182 29.93 31.557 42.434a5.602 5.602 0 0 0 .124 7.393c8.424 9.274 10.76 22.219 6.093 33.784-4.667 11.566-15.33 19.249-27.826 20.052a5.59 5.59 0 0 0-5.221 5.229c-1.034 16.386 1.468 32.547 7.438 48.036.064.164.135.326.213.483l-.002-.002a5.6 5.6 0 0 0 6.106 2.996c12.045-2.404 24.208 2.099 31.744 11.752 7.241 9.27 8.856 21.758 4.223 32.588a5.603 5.603 0 0 0 2.119 6.914c6.188 3.984 12.581 7.322 19 9.92 8.157 3.303 17.016 5.668 26.328 7.029a5.59 5.59 0 0 0 5.966-3.376c4.444-10.635 13.874-17.934 25.226-19.523 10.857-1.519 21.645 2.55 28.859 10.885a5.596 5.596 0 0 0 6.716 1.354c14.901-7.392 27.646-17.567 37.883-30.243zm-101.872-38.231c-18.377-7.439-27.291-28.447-19.871-46.829v-.001c3.594-8.904 10.439-15.872 19.275-19.62 8.835-3.748 18.604-3.827 27.506-.223 8.902 3.604 15.868 10.46 19.625 19.304 3.753 8.845 3.841 18.62.246 27.525-7.418 18.381-28.405 27.283-46.781 19.844z"/><path fill="#1E284C" d="M102.712 233.168a10.1 10.1 0 0 1-1.465-.107c-9.669-1.413-18.877-3.873-27.367-7.311-6.682-2.705-13.326-6.173-19.747-10.308a10.072 10.072 0 0 1-3.819-12.469c3.988-9.324 2.597-20.071-3.633-28.047-6.484-8.305-16.953-12.181-27.317-10.109-4.459.891-8.984-1.333-11.014-5.401l-.057-.117a10.507 10.507 0 0 1-.324-.749C1.762 142.448-.839 125.647.237 108.607c.32-5.055 4.371-9.111 9.423-9.437 10.754-.691 19.928-7.299 23.942-17.245 4.015-9.947 2.002-21.088-5.251-29.074-3.403-3.746-3.499-9.478-.222-13.333 11.046-13 24.574-23.274 40.209-30.535A10.077 10.077 0 0 1 80.893 12.4c6.02 8.704 16.24 13.205 26.657 11.746 10.011-1.401 18.465-8.158 22.064-17.636A10.06 10.06 0 0 1 141.022.197c7.486 1.496 14.669 3.625 21.349 6.33 8.504 3.442 16.833 8.084 24.754 13.797a10.098 10.098 0 0 1 3.504 11.863c-3.602 9.245-2.125 19.411 3.949 27.19 5.81 7.441 14.921 11.384 24.359 10.545 4.575-.416 8.862 2.334 10.407 6.675 5.805 16.297 7.991 33.125 6.499 50.016-.388 4.41-3.688 8.111-8.024 9-9.139 1.873-16.674 8.142-20.156 16.768-3.483 8.63-2.413 18.387 2.862 26.101 2.532 3.713 2.34 8.552-.476 12.045l-.003.003c-10.646 13.184-23.897 23.764-39.383 31.446a10.098 10.098 0 0 1-12.119-2.439c-6.212-7.177-15.503-10.68-24.832-9.374-9.762 1.366-17.873 7.647-21.697 16.801a10.087 10.087 0 0 1-9.303 6.204zm-77.801-77.902c11.181 0 21.802 5.078 28.862 14.122 8.249 10.559 10.094 24.786 4.814 37.127a1.099 1.099 0 0 0 .416 1.36c5.951 3.832 12.092 7.039 18.254 9.533 7.824 3.168 16.333 5.438 25.29 6.748a1.1 1.1 0 0 0 1.164-.66c5.062-12.116 15.811-20.432 28.753-22.243 12.377-1.728 24.668 2.902 32.885 12.396.327.377.865.489 1.315.267 14.313-7.101 26.552-16.869 36.377-29.035a1.1 1.1 0 0 0 .051-1.32c-6.976-10.201-8.389-23.117-3.775-34.546 4.615-11.431 14.595-19.735 26.695-22.215.476-.098.823-.489.866-.974 1.377-15.592-.646-31.138-6.014-46.208a1.105 1.105 0 0 0-1.129-.729c-12.512 1.115-24.558-4.114-32.252-13.971-8.047-10.306-10.007-23.764-5.241-35.998.184-.469.026-1-.382-1.294-7.337-5.292-15.031-9.583-22.867-12.755-6.159-2.494-12.799-4.461-19.734-5.847a1.084 1.084 0 0 0-1.231.683c-4.767 12.549-15.967 21.498-29.23 23.354-13.818 1.929-27.341-4.022-35.308-15.54a1.095 1.095 0 0 0-1.362-.373c-14.446 6.708-26.942 16.196-37.141 28.199a1.103 1.103 0 0 0 .024 1.453c9.597 10.566 12.254 25.316 6.936 38.494-5.321 13.185-17.472 21.944-31.711 22.858a1.095 1.095 0 0 0-1.018 1.023c-.993 15.734 1.411 31.256 7.146 46.133.026.054.053.109.078.164.236.399.706.613 1.159.52a37.388 37.388 0 0 1 7.31-.726zm181.635 32.44h.01-.01zm-88.413-31.092a40.305 40.305 0 0 1-15.146-2.969c-20.676-8.369-30.704-32.003-22.356-52.685 4.045-10.021 11.748-17.862 21.691-22.079 9.941-4.218 20.934-4.308 30.951-.251 10.01 4.052 17.851 11.764 22.078 21.715 4.223 9.953 4.321 20.95.278 30.968-4.038 10.005-11.743 17.84-21.695 22.062-5.087 2.159-10.444 3.239-15.801 3.239zm-.039-71.957c-4.16 0-8.315.837-12.26 2.51-7.728 3.278-13.715 9.373-16.858 17.162-6.493 16.085 1.307 34.465 17.387 40.974 7.771 3.146 16.314 3.072 24.056-.211 7.737-3.283 13.727-9.372 16.864-17.146 3.144-7.791 3.067-16.344-.217-24.083-3.288-7.74-9.387-13.739-17.171-16.89a31.38 31.38 0 0 0-11.801-2.316z"/></g></g></svg></g><g transform="translate(2016.6666666666667 930.0) rotate(0.0 356.66666666666663 356.66666666666674) scale(2.633042468268147 2.632993873982945)"><svg width="270.916" height="270.921" viewBox="0 0 270.916 270.921"><g><g><g><path fill="#95FF80" d="M260.823 83.212c-1.533-3.729-5.647-5.722-9.568-4.683l-.007.002c-11.48 3.11-19.771.716-26.072-7.537-6.631-8.698-6.607-17.601.07-28.023 2.031-3.044 1.69-7.139-.811-9.807-6.757-7.551-29.89-21.62-38.771-23.575-3.502-.776-7.145.885-8.845 4.02-5.81 10.586-13.489 14.765-24.176 13.142-10.748-1.608-16.898-8.036-19.359-20.228l-.02-.097c-.899-3.988-4.59-6.738-8.554-6.399-14.61 1.133-28.741 4.592-42 10.275-3.83 1.598-5.796 5.803-4.572 9.805 3.335 10.828 1.326 19.187-6.136 25.543-9.23 7.827-18.358 7.98-29.607.493l-.083-.054c-3.518-2.23-7.971-1.533-10.606 1.652C22.22 58.959 14.72 71.376 9.416 84.648c-1.523 3.832.08 8.178 3.685 10.085 10.782 5.88 15.071 13.596 13.492 24.296-1.564 10.778-7.926 16.94-20.055 19.413-4.039.764-6.847 4.458-6.516 8.619 1.258 14.482 4.796 28.54 10.517 41.786 1.563 3.739 5.694 5.757 9.675 4.632 11.491-3.327 19.808-1 26.2 7.317 6.65 8.728 6.636 17.648-.036 28.057-2.205 3.405-1.56 7.84 1.53 10.546.018.017.038.032.058.049 10.937 9.241 23.325 16.664 36.82 22.062 3.714 1.533 8.015.075 10.019-3.41 5.928-10.344 13.531-14.477 23.915-13.022 10.651 1.522 16.848 7.72 19.512 19.55a8.159 8.159 0 0 0 8.453 6.276l.11-.007a136.723 136.723 0 0 0 19.438-3.072 132.035 132.035 0 0 0 22.124-7.26 6.491 6.491 0 0 0 1.59-.894c2.47-1.802 3.777-5.058 3.27-8.131l-.009-.07c-.06-.466-.13-.988-.32-1.572-2.608-9.7.316-19.135 7.646-24.645.133-.1.26-.207.38-.322 7.947-5.717 17.447-5.903 26.09-.503l.057.034c4.574 2.76 9.562 1.894 13.026-2.27a135.643 135.643 0 0 0 20.342-33.452c.031-.07.058-.143.085-.215.131-.361.295-.812.417-1.068.083-.175.153-.355.211-.538l.122-.381c1.327-3.592-.1-7.648-3.434-9.7-.036-.02-.07-.043-.107-.062-9.62-5.544-13.734-12.511-12.943-21.963.883-11.76 6.97-18.34 19.735-21.319l.126-.03c.028-.007.064-.017.097-.024 3.863-.985 6.447-4.567 6.143-8.516-1.109-14.555-4.496-28.588-10.058-41.712zm-63.234 37.8c8.01 34.326-13.402 68.771-47.73 76.784-34.328 8.01-68.775-13.4-76.786-47.727s13.402-68.772 47.73-76.784c34.328-8.01 68.775 13.4 76.786 47.726z"/></g></g></g></svg></g><g transform="translate(1753.3333333333335 185.0) rotate(0.0 612.5 674.1666666666667) scale(2.637817910891281 2.637419671173427)"><svg width="464.399" height="511.232" viewBox="0 0 464.399 511.232"><path d="M423.516 357.905c-61.992-72.639-151.353-108.299-189.254-152.71-29.146-34.152 25.816-91.938-28.582-158.591a115.855 115.855 0 0 0-2.002-2.415c-31.75-37.203-82.403-48.74-125.706-32.541l62.569 73.315c8.263 9.682 7.113 24.23-2.57 32.494l-28.131 24.008c-9.738 8.311-24.369 7.154-32.68-2.584L16.206 67.458C-3.217 106.77 1.289 155.537 31.534 191.017l.043.049h-.001c.077.09.154.173.231.262.589.686 1.185 1.366 1.787 2.034 57.042 63.986 123.026 19.052 152.18 53.213 36.872 43.204 59.073 138.265 121.065 210.904 36.655 42.95 84.523 68.341 127.704 31.49 43.18-36.849 25.628-88.113-11.027-131.064zm-32.664 101.572c-15.17.808-28.123-10.835-28.931-26.005s10.835-28.123 26.005-28.931 28.123 10.835 28.931 26.005-10.835 28.123-26.005 28.931z" fill="#DEA2FF"/><path d="M389.839 511.185c-27.913.001-57.736-17.169-86.423-50.782-35.4-41.48-57.719-89.642-77.41-132.135-15.024-32.424-28.001-60.427-43.655-78.769-10.993-12.881-28.137-13.174-49.841-13.543-30.3-.516-68.009-1.159-102.275-39.596-.611-.679-1.23-1.385-1.844-2.1l-.221-.251-.062-.071A117.57 117.57 0 0 1 12.172 65.465a4.5 4.5 0 0 1 7.458-.929l60.954 71.423a18.56 18.56 0 0 0 12.736 6.496 18.561 18.561 0 0 0 13.6-4.413l28.132-24.008c7.778-6.64 8.706-18.37 2.067-26.149L74.549 14.57a4.498 4.498 0 0 1 1.845-7.136c46.17-17.271 98.696-3.674 130.708 33.834.707.829 1.399 1.666 2.079 2.508 32.686 40.05 27.331 77.356 23.028 107.332-3.072 21.402-5.499 38.307 5.476 51.166 16.229 19.017 42.094 36.367 72.043 56.456 38.445 25.789 82.02 55.019 117.211 96.254 20.432 23.941 33.045 48.162 36.475 70.044 4.148 26.465-4.583 49.13-25.95 67.365-14.741 12.581-30.838 18.792-47.625 18.792zM35.009 188.157l.204.231c.574.67 1.146 1.322 1.725 1.964 31.658 35.513 65.695 36.092 95.726 36.604 22.064.376 42.905.731 56.533 16.699 16.455 19.282 29.672 47.803 44.976 80.828 19.448 41.968 41.491 89.535 76.09 130.076 19.352 22.675 39.881 37.998 59.368 44.311 22.311 7.229 43.164 2.745 61.991-13.323 18.826-16.067 26.531-35.96 22.9-59.126-3.172-20.238-15.077-42.92-34.429-65.595-34.388-40.294-77.416-69.157-115.379-94.623-30.501-20.459-56.842-38.129-73.875-58.087-13.615-15.954-10.664-36.517-7.539-58.288 4.265-29.705 9.097-63.373-21.105-100.38a114.62 114.62 0 0 0-1.939-2.339C172.105 14.127 126.78 1.163 85.699 13.771l58.265 68.271c9.86 11.554 8.482 28.977-3.07 38.838l-28.133 24.008c-5.625 4.8-12.78 7.123-20.151 6.54-7.37-.583-14.072-4.001-18.872-9.625L17.37 75.755a108.56 108.56 0 0 0 17.588 112.343l.051.059zm354.341 275.86c-7.906 0-15.433-2.878-21.357-8.204-6.358-5.715-10.11-13.565-10.565-22.102-.454-8.537 2.442-16.74 8.157-23.099 5.716-6.358 13.565-10.11 22.103-10.565 8.529-.458 16.74 2.442 23.099 8.158 6.358 5.715 10.11 13.564 10.564 22.102.938 17.624-12.636 32.725-30.259 33.664-.583.03-1.164.046-1.742.046zm.067-55.016c-.416 0-.833.011-1.252.033a22.858 22.858 0 0 0-15.888 7.594 22.859 22.859 0 0 0-5.863 16.603 22.859 22.859 0 0 0 7.595 15.888c4.571 4.108 10.462 6.199 16.604 5.864 12.668-.675 22.425-11.53 21.75-24.198a22.85 22.85 0 0 0-7.594-15.887c-4.259-3.828-9.669-5.897-15.352-5.897z" fill="#1E284C"/></svg></g><g transform="translate(550.0 251.66666666666669) rotate(0.0 204.16666666666669 215.00000000000003) scale(2.658974091824686 2.658637170220791)"><svg width="153.568" height="161.737" viewBox="0 0 153.568 161.737"><path d="M13.252 55.767 125.778 5.784c9.62-4.273 20.487 2.63 20.707 13.154l2.579 123.235c.246 11.76-12.712 19.051-22.636 12.736L11.323 81.657c-9.915-6.31-8.811-21.119 1.929-25.89z" fill="#DEA2FF"/><g fill="#1E284C"><path d="M134.32 161.758c-3.563 0-7.114-1.021-10.308-3.053L8.907 85.453C2.828 81.585-.481 74.986.054 67.801c.535-7.186 4.786-13.222 11.371-16.146L123.952 1.671a19.184 19.184 0 0 1 18.118 1.342 19.19 19.19 0 0 1 8.915 15.83l2.579 123.235c.151 7.21-3.511 13.626-9.797 17.163-2.987 1.68-6.222 2.517-9.447 2.517zM131.783 8.995c-1.406 0-2.822.299-4.178.901L15.079 59.879c-3.503 1.556-5.765 4.767-6.049 8.589-.285 3.822 1.476 7.333 4.709 9.391l115.105 73.252c3.237 2.06 7.165 2.166 10.509.285s5.292-5.294 5.212-9.13l-2.579-123.235c-.073-3.483-1.801-6.553-4.743-8.421-1.687-1.072-3.565-1.615-5.46-1.615zM13.252 55.767h.01z"/><path d="m127.886 33.733-8.813-5.597a4.167 4.167 0 0 0-3.16-.554 4.16 4.16 0 0 0-2.625 1.844L89.099 67.502a4.162 4.162 0 0 0-.553 3.159 4.156 4.156 0 0 0 1.843 2.624l8.814 5.599.001.001c.852.54 1.826.735 2.758.62a4.186 4.186 0 0 0 3.026-1.911l24.188-38.077a4.196 4.196 0 0 0-1.29-5.784zM84.052 83.266a4.168 4.168 0 0 0-3.161-.553 4.163 4.163 0 0 0-2.626 1.845l-5.596 8.808a4.167 4.167 0 0 0-.554 3.163 4.163 4.163 0 0 0 1.844 2.625l8.811 5.597v.001c.852.54 1.827.735 2.759.619a4.19 4.19 0 0 0 3.028-1.912l5.597-8.811a4.201 4.201 0 0 0-1.292-5.788z"/></g></svg></g><g transform="translate(765.0 313.33333333333337) rotate(33.078547323229245 47.5 119.16666666666669) scale(1.6666666666666667 1.666666666666667)"><svg width="57" height="143" viewBox="0 0 57 143"><clipPath id="a"><rect width="57" height="143" fill="#DEA2FF" rx="0" ry="0" stroke="#9200E0" stroke-width="0"/></clipPath><rect width="57" height="143" fill="#DEA2FF" rx="0" ry="0" clip-path="url(#a)"/></svg></g><g transform="translate(743.3333333333334 321.6666666666667) rotate(0.0 79.16666666666669 105.83333333333334) scale(1.3448052297352011 1.3338626772619475)"><svg width="117.737" height="158.687" viewBox="0 0 117.737 158.687"><g fill="#FFF"><path d="M113.782 12.732 95.835 1.333A8.49 8.49 0 0 0 89.4.205a8.47 8.47 0 0 0-5.346 3.755L34.795 81.502a8.476 8.476 0 0 0-1.126 6.434 8.464 8.464 0 0 0 3.753 5.344l17.949 11.403.003.002a8.502 8.502 0 0 0 5.616 1.262 8.518 8.518 0 0 0 6.161-3.892l49.258-77.542c2.523-3.973 1.345-9.255-2.627-11.781zM24.517 113.603a8.488 8.488 0 0 0-6.437-1.126 8.472 8.472 0 0 0-5.347 3.757L1.336 134.172a8.484 8.484 0 0 0-1.129 6.441 8.473 8.473 0 0 0 3.755 5.346l17.942 11.399v.002a8.5 8.5 0 0 0 5.618 1.261 8.533 8.533 0 0 0 6.167-3.893l11.399-17.942c2.52-3.971 1.342-9.258-2.631-11.787l-17.94-11.396z"/></g></svg></g></svg>