<svg width="219" height="42" viewBox="0 0 219 42" fill="none" xmlns="http://www.w3.org/2000/svg">
<path d="M0.498047 29.2402C0.498047 28.8184 0.667969 28.3203 1.00781 27.7461C1.34766 27.1719 1.57617 26.8203 1.69336 26.6914C1.92773 26.4102 2.16211 26.2695 2.39648 26.2695C2.64258 26.2695 2.90039 26.3457 3.16992 26.498C3.43945 26.6504 3.79688 26.8438 4.24219 27.0781C4.69922 27.3008 5.18555 27.5117 5.70117 27.7109C6.84961 28.1445 7.85156 28.3613 8.70703 28.3613C9.57422 28.3613 10.2773 28.2852 10.8164 28.1328C11.3555 27.9805 11.8184 27.752 12.2051 27.4473C13.002 26.8027 13.4004 25.9004 13.4004 24.7402C13.4004 23.2754 12.293 22.0273 10.0781 20.9961C9.44531 20.7031 8.73047 20.4102 7.93359 20.1172C7.14844 19.8125 6.31641 19.4082 5.4375 18.9043C4.57031 18.4004 3.79102 17.8086 3.09961 17.1289C1.56445 15.6055 0.796875 13.8125 0.796875 11.75C0.796875 9.55859 1.69336 7.80078 3.48633 6.47656C5.16211 5.23437 7.13672 4.61328 9.41016 4.61328C11.9414 4.61328 14.0215 5.16406 15.6504 6.26562C16.541 6.85156 16.9863 7.39648 16.9863 7.90039C16.9863 8.16992 16.8281 8.60352 16.5117 9.20117C16.1953 9.79883 15.9375 10.2031 15.7383 10.4141C15.5508 10.625 15.375 10.7305 15.2109 10.7305C14.918 10.7305 14.5312 10.5723 14.0508 10.2559C13.582 9.93945 12.9082 9.59375 12.0293 9.21875C11.1504 8.84375 10.3184 8.65625 9.5332 8.65625C8.74805 8.65625 8.11523 8.7207 7.63477 8.84961C7.16602 8.97852 6.75586 9.17187 6.4043 9.42969C5.67773 9.98047 5.31445 10.7832 5.31445 11.8379C5.31445 13.3613 6.35742 14.5684 8.44336 15.459L10.1484 16.1621C12.4336 17.041 14.168 18.0137 15.3516 19.0801C16.9805 20.5566 17.7949 22.3672 17.7949 24.5117C17.7949 26.9023 16.8926 28.8477 15.0879 30.3477C13.4238 31.7422 11.4727 32.4395 9.23438 32.4395C6.36328 32.4395 3.91992 31.8477 1.9043 30.6641C0.966797 30.125 0.498047 29.6504 0.498047 29.2402ZM23.3145 1.94141C23.3145 1.625 23.4023 1.36133 23.5781 1.15039C23.7656 0.939453 23.9883 0.833984 24.2461 0.833984H26.6543C26.9238 0.833984 27.1465 0.939453 27.3223 1.15039C27.498 1.36133 27.5859 1.625 27.5859 1.94141V15.248C28.5938 13.5371 30.0762 12.4414 32.0332 11.9609C32.6543 11.8086 33.4395 11.7324 34.3887 11.7324C35.3496 11.7324 36.2461 11.9434 37.0781 12.3652C37.9102 12.7754 38.5723 13.3438 39.0645 14.0703C39.9434 15.3945 40.3828 17.3457 40.3828 19.9238V30.8398C40.3828 31.1914 40.2773 31.4727 40.0664 31.6836C39.8555 31.8945 39.5449 32 39.1348 32H37.4121C36.9668 32 36.6387 31.8887 36.4277 31.666C36.2168 31.4434 36.1113 31.168 36.1113 30.8398V19.9062C36.1113 16.9062 35.0098 15.4062 32.8066 15.4062C31.5762 15.4062 30.416 15.9453 29.3262 17.0234C28.166 18.1953 27.5859 19.543 27.5859 21.0664V30.8398C27.5859 31.168 27.4863 31.4434 27.2871 31.666C27.0879 31.8887 26.7656 32 26.3203 32H24.4043C24.0645 32 23.7949 31.8887 23.5957 31.666C23.4082 31.4434 23.3145 31.168 23.3145 30.8398V1.94141ZM64.5352 30.8047C64.5352 31.6016 64.1719 32 63.4453 32H62.6543C61.9512 32 61.4883 31.7188 61.2656 31.1562C61.0195 30.5117 60.7559 29.6152 60.4746 28.4668C59.9824 29.6973 59.1445 30.6699 57.9609 31.3848C56.7891 32.0879 55.3242 32.4395 53.5664 32.4395C51.2695 32.4395 49.5762 31.7246 48.4863 30.2949C47.3965 28.8535 46.8516 26.7324 46.8516 23.9316V13.332C46.8516 13.0039 46.9512 12.7285 47.1504 12.5059C47.3613 12.2832 47.6543 12.1719 48.0293 12.1719H49.9629C50.7363 12.1719 51.123 12.5586 51.123 13.332V23.7383C51.123 26.5391 51.7734 28.1562 53.0742 28.5898C53.4961 28.7305 53.9941 28.8008 54.5684 28.8008C55.1543 28.8008 55.752 28.666 56.3613 28.3965C56.9824 28.127 57.5391 27.7695 58.0312 27.3242C59.1328 26.3047 59.6836 25.1387 59.6836 23.8262V13.332C59.6836 13.0039 59.7832 12.7285 59.9824 12.5059C60.1816 12.2832 60.498 12.1719 60.9316 12.1719H62.7773C63.1875 12.1719 63.4863 12.2832 63.6738 12.5059C63.8613 12.7285 63.9551 13.0039 63.9551 13.332V24.3184C63.9551 26.791 64.1309 28.7832 64.4824 30.2949C64.5176 30.4238 64.5352 30.5938 64.5352 30.8047ZM81.4805 14.8438C81.4805 15.5 81.1113 15.8281 80.373 15.8281H75.416V26.8672C75.416 28.0625 76.0078 28.6602 77.1914 28.6602C77.9414 28.6602 78.9199 28.2852 80.127 27.5352C80.3613 27.3828 80.6133 27.3066 80.8828 27.3066C81.1641 27.3066 81.3867 27.5 81.5508 27.8867L81.9551 28.8008C82.1074 29.1523 82.1836 29.4512 82.1836 29.6973C82.1836 29.9434 81.9961 30.2305 81.6211 30.5586C81.2578 30.875 80.7891 31.1621 80.2148 31.4199C78.9141 32.0059 77.7363 32.2988 76.6816 32.2988C75.627 32.2988 74.7891 32.1934 74.168 31.9824C73.5586 31.7598 73.0371 31.4316 72.6035 30.998C71.666 30.084 71.1973 28.7656 71.1973 27.043V15.8281H69.7207C68.9824 15.8281 68.6133 15.4941 68.6133 14.8262V13.8242C68.6133 13.5547 68.6836 13.3438 68.8242 13.1914C68.9648 13.0391 69.2402 12.9219 69.6504 12.8398L71.4082 12.3301L72.0762 8.19922C72.2051 7.42578 72.5215 7.03906 73.0254 7.03906H74.4844C74.7539 7.03906 74.9766 7.15039 75.1523 7.37305C75.3281 7.58398 75.416 7.85938 75.416 8.19922V12.1719H80.373C81.1113 12.1719 81.4805 12.4941 81.4805 13.1387V14.8438ZM96.457 14.8438C96.457 15.5 96.0879 15.8281 95.3496 15.8281H90.3926V26.8672C90.3926 28.0625 90.9844 28.6602 92.168 28.6602C92.918 28.6602 93.8965 28.2852 95.1035 27.5352C95.3379 27.3828 95.5898 27.3066 95.8594 27.3066C96.1406 27.3066 96.3633 27.5 96.5273 27.8867L96.9316 28.8008C97.084 29.1523 97.1602 29.4512 97.1602 29.6973C97.1602 29.9434 96.9727 30.2305 96.5977 30.5586C96.2344 30.875 95.7656 31.1621 95.1914 31.4199C93.8906 32.0059 92.7129 32.2988 91.6582 32.2988C90.6035 32.2988 89.7656 32.1934 89.1445 31.9824C88.5352 31.7598 88.0137 31.4316 87.5801 30.998C86.6426 30.084 86.1738 28.7656 86.1738 27.043V15.8281H84.6973C83.959 15.8281 83.5898 15.4941 83.5898 14.8262V13.8242C83.5898 13.5547 83.6602 13.3438 83.8008 13.1914C83.9414 13.0391 84.2168 12.9219 84.627 12.8398L86.3848 12.3301L87.0527 8.19922C87.1816 7.42578 87.498 7.03906 88.002 7.03906H89.4609C89.7305 7.03906 89.9531 7.15039 90.1289 7.37305C90.3047 7.58398 90.3926 7.85938 90.3926 8.19922V12.1719H95.3496C96.0879 12.1719 96.457 12.4941 96.457 13.1387V14.8438ZM103.646 23.0527L103.629 23.3867C103.629 24.9922 104.139 26.2812 105.158 27.2539C106.225 28.2852 107.672 28.8008 109.5 28.8008C111.164 28.8008 112.711 28.3027 114.141 27.3066C114.41 27.1191 114.65 27.0254 114.861 27.0254C115.295 27.0254 115.623 27.2422 115.846 27.6758L116.32 28.6602C116.426 28.8945 116.479 29.1465 116.479 29.416C116.479 29.6855 116.355 29.9668 116.109 30.2598C115.875 30.541 115.564 30.7988 115.178 31.0332C114.791 31.2676 114.34 31.4727 113.824 31.6484C113.32 31.8242 112.799 31.9707 112.26 32.0879C111.182 32.3223 110.057 32.4395 108.885 32.4395C107.713 32.4395 106.529 32.2168 105.334 31.7715C104.15 31.3262 103.125 30.6758 102.258 29.8203C100.395 28.0039 99.4629 25.5488 99.4629 22.4551C99.4629 17.0293 101.373 13.6543 105.193 12.3301C106.389 11.9199 107.613 11.7148 108.867 11.7148C110.133 11.7148 111.205 11.8496 112.084 12.1191C112.975 12.3887 113.742 12.7871 114.387 13.3145C115.746 14.4277 116.426 15.9805 116.426 17.9727C116.426 19.9297 115.629 21.4238 114.035 22.4551C112.641 23.3574 110.801 23.8086 108.516 23.8086C107.109 23.8086 105.486 23.5566 103.646 23.0527ZM112.295 17.9199C112.295 16.2441 111.17 15.4062 108.92 15.4062C106.775 15.4062 105.275 16.1914 104.42 17.7617C104.115 18.3125 103.916 18.9922 103.822 19.8008C104.83 20.3047 106.113 20.5566 107.672 20.5566C110.754 20.5566 112.295 19.6777 112.295 17.9199ZM121.277 13.4375C121.277 12.5938 121.646 12.1719 122.385 12.1719H123.334C123.979 12.1719 124.436 12.4531 124.705 13.0156C125.092 13.8359 125.373 14.9668 125.549 16.4082C125.549 16.4316 125.555 16.4434 125.566 16.4434C125.59 16.4434 125.631 16.2441 125.689 15.8457C125.748 15.4473 125.918 14.9609 126.199 14.3867C126.48 13.8008 126.826 13.3086 127.236 12.9102C128.068 12.125 129.088 11.7324 130.295 11.7324C131.643 11.7324 132.58 11.9551 133.107 12.4004C133.354 12.5996 133.453 12.875 133.406 13.2266L133.125 15.4414C133.055 16.0391 132.75 16.3379 132.211 16.3379C131.953 16.3379 131.637 16.2852 131.262 16.1797C130.535 15.9922 129.961 15.8984 129.539 15.8984C129.117 15.8984 128.672 16.0859 128.203 16.4609C127.734 16.8242 127.33 17.2812 126.99 17.832C126.299 18.9805 125.953 20.2051 125.953 21.5059V30.8398C125.953 31.168 125.859 31.4434 125.672 31.666C125.484 31.8887 125.215 32 124.863 32H122.824C122.449 32 122.162 31.8887 121.963 31.666C121.775 31.4434 121.682 31.168 121.682 30.8398V18.7285C121.682 16.666 121.611 15.3066 121.471 14.6504C121.342 13.9824 121.277 13.5781 121.277 13.4375Z" fill="white"/>
<path d="M135.428 29.2402C135.428 28.8184 135.598 28.3203 135.938 27.7461C136.277 27.1719 136.506 26.8203 136.623 26.6914C136.857 26.4102 137.092 26.2695 137.326 26.2695C137.572 26.2695 137.83 26.3457 138.1 26.498C138.369 26.6504 138.727 26.8438 139.172 27.0781C139.629 27.3008 140.115 27.5117 140.631 27.7109C141.779 28.1445 142.781 28.3613 143.637 28.3613C144.504 28.3613 145.207 28.2852 145.746 28.1328C146.285 27.9805 146.748 27.752 147.135 27.4473C147.932 26.8027 148.33 25.9004 148.33 24.7402C148.33 23.2754 147.223 22.0273 145.008 20.9961C144.375 20.7031 143.66 20.4102 142.863 20.1172C142.078 19.8125 141.246 19.4082 140.367 18.9043C139.5 18.4004 138.721 17.8086 138.029 17.1289C136.494 15.6055 135.727 13.8125 135.727 11.75C135.727 9.55859 136.623 7.80078 138.416 6.47656C140.092 5.23437 142.066 4.61328 144.34 4.61328C146.871 4.61328 148.951 5.16406 150.58 6.26562C151.471 6.85156 151.916 7.39648 151.916 7.90039C151.916 8.16992 151.758 8.60352 151.441 9.20117C151.125 9.79883 150.867 10.2031 150.668 10.4141C150.48 10.625 150.305 10.7305 150.141 10.7305C149.848 10.7305 149.461 10.5723 148.98 10.2559C148.512 9.93945 147.838 9.59375 146.959 9.21875C146.08 8.84375 145.248 8.65625 144.463 8.65625C143.678 8.65625 143.045 8.7207 142.564 8.84961C142.096 8.97852 141.686 9.17187 141.334 9.42969C140.607 9.98047 140.244 10.7832 140.244 11.8379C140.244 13.3613 141.287 14.5684 143.373 15.459L145.078 16.1621C147.363 17.041 149.098 18.0137 150.281 19.0801C151.91 20.5566 152.725 22.3672 152.725 24.5117C152.725 26.9023 151.822 28.8477 150.018 30.3477C148.354 31.7422 146.402 32.4395 144.164 32.4395C141.293 32.4395 138.85 31.8477 136.834 30.6641C135.896 30.125 135.428 29.6504 135.428 29.2402ZM172.869 12.1719C173.619 12.1719 173.994 12.541 173.994 13.2793C173.994 14.1348 173.549 16.0273 172.658 18.957L171.568 22.3145C169.002 29.6738 165.82 35.7324 162.023 40.4902L161.672 40.9297C161.133 41.6211 160.582 41.9668 160.02 41.9668C159.422 41.9668 158.73 41.5508 157.945 40.7188C157.723 40.4844 157.611 40.2148 157.611 39.9102C157.611 39.418 157.875 38.8965 158.402 38.3457C158.93 37.8066 159.416 37.2617 159.861 36.7109C160.307 36.1719 160.729 35.627 161.127 35.0762C161.854 34.0801 162.51 33.0312 163.096 31.9297C161.268 26.9961 160.16 24.043 159.773 23.0703L157.857 18.3066L156.504 15.2305C156 14.0586 155.748 13.3496 155.748 13.1035C155.748 12.8457 155.854 12.6289 156.064 12.4531C156.287 12.2656 156.598 12.1719 156.996 12.1719H159.211C159.727 12.1719 160.125 12.4648 160.406 13.0508C160.617 13.4844 160.904 14.1992 161.268 15.1953C162.006 17.3516 162.545 18.9512 162.885 19.9941L164.309 24.6523C164.449 25.1211 164.555 25.4961 164.625 25.7773L164.783 26.4102C164.818 26.5508 164.859 26.7266 164.906 26.9375L165.064 27.6055C165.123 27.8398 165.188 27.957 165.258 27.957C165.328 27.957 165.404 27.8867 165.486 27.7461C165.58 27.6055 165.674 27.4238 165.768 27.2012L166.066 26.4629C167.285 23.334 168.439 18.9512 169.529 13.3145C169.67 12.5527 170.109 12.1719 170.848 12.1719H172.869ZM178.705 13.4375C178.705 12.5938 179.109 12.1719 179.918 12.1719H180.885C181.541 12.1719 181.986 12.418 182.221 12.9102C182.549 13.6133 182.83 14.5391 183.064 15.6875C184.119 13.7656 185.689 12.5352 187.775 11.9961C188.432 11.8203 189.246 11.7324 190.219 11.7324C191.203 11.7324 192.111 11.9434 192.943 12.3652C193.775 12.7754 194.432 13.3438 194.912 14.0703C195.803 15.3945 196.248 17.3457 196.248 19.9238V30.8398C196.248 31.168 196.143 31.4434 195.932 31.666C195.721 31.8887 195.41 32 195 32H193.277C192.832 32 192.504 31.8887 192.293 31.666C192.082 31.4434 191.977 31.168 191.977 30.8398V19.9062C191.977 16.9062 190.875 15.4062 188.672 15.4062C187.383 15.4062 186.205 15.9453 185.139 17.0234C184.002 18.1836 183.434 19.5312 183.434 21.0664V30.8398C183.434 31.168 183.334 31.4434 183.135 31.666C182.936 31.8887 182.631 32 182.221 32H180.41C180 32 179.689 31.8887 179.479 31.666C179.268 31.4434 179.162 31.168 179.162 30.8398V20.0469C179.162 17.6914 179.086 16.0508 178.934 15.125C178.781 14.1875 178.705 13.625 178.705 13.4375ZM215.883 19.9941C214.922 19.9941 214.441 19.5195 214.441 18.5703C214.441 17.4805 214.107 16.6484 213.439 16.0742C212.865 15.5703 212.092 15.3184 211.119 15.3184C210.158 15.3184 209.361 15.5176 208.729 15.916C208.096 16.3145 207.58 16.8242 207.182 17.4453C206.408 18.6641 206.021 20.1289 206.021 21.8398C206.021 25.0391 206.994 27.1367 208.939 28.1328C209.643 28.4961 210.422 28.6777 211.277 28.6777C212.133 28.6777 212.836 28.584 213.387 28.3965C213.938 28.209 214.43 28.0039 214.863 27.7812C215.297 27.5586 215.672 27.3535 215.988 27.166C216.316 26.9785 216.586 26.8848 216.797 26.8848C217.219 26.8848 217.553 27.0781 217.799 27.4648L218.186 28.1152C218.361 28.4199 218.449 28.7188 218.449 29.0117C218.449 29.293 218.332 29.5918 218.098 29.9082C217.863 30.2129 217.547 30.4941 217.148 30.752C216.762 31.0098 216.316 31.2441 215.812 31.4551C215.309 31.666 214.787 31.8477 214.248 32C211.67 32.6914 209.314 32.5859 207.182 31.6836C204.791 30.6758 203.145 28.8711 202.242 26.2695C201.797 24.9805 201.574 23.5391 201.574 21.9453C201.574 20.3516 201.809 18.9219 202.277 17.6562C202.758 16.3906 203.42 15.3184 204.264 14.4395C206.01 12.6348 208.289 11.7324 211.102 11.7324C213.586 11.7324 215.49 12.3828 216.814 13.6836C217.928 14.7969 218.484 16.1914 218.484 17.8672C218.484 19.2852 217.758 19.9941 216.305 19.9941H215.883Z" fill="#4B6EC9"/>
</svg>